<svg xmlns="http://www.w3.org/2000/svg" xml:space="preserve" width="1200" height="1200" viewBox="0 0 1200 1200"><path fill="#ffa90f" d="M198.829 438.241s-119.717-53.62-28.375-151.294c0 0 148.186-135.593 242.703-173.471 0 0 66.343-31.439 113.612 47.27 0 0 122.875 217.615 138.639 416.174 0 0 9.481 34.663-37.878 75.583 0 0-66.164 37.878-110.308 31.528 0-.001-249.026-189.084-318.393-245.79m391.019-289.844s119.526 157.382 125.484 413.088c0 0 118.154-40.88 158.923-10.567 0 0 99.825-402.521-101.348-408.568zm354.12 95.279s45.377 95.328-3.024 282.933c0 0 72.559-7.61 124.046 18.178 0 0 108.892 49.964 80.192-122.594 0-.001-45.444-134.592-201.214-178.517M125.62 445.46s126.201 92.669 344.248 260.707c0 0-79.212 96.543-64.904 145.421 0 0-412.153-45.533-348.229-236.442zM92.699 810.668s73.69 75.578 266.47 94.976c0 0-32.2 65.576-25.873 122.719 0 0 9.218 119.464-142.66 32.877 0 0-110.762-89.147-97.937-250.572"/></svg>