<?xml version="1.0" encoding="utf-8"?>
<!-- Designed by Vexels.com - 2016 All Rights Reserved - https://vexels.com/terms-and-conditions/  -->

<svg version="1.1" id="Layer_1" xmlns="http://www.w3.org/2000/svg" xmlns:xlink="http://www.w3.org/1999/xlink" x="0px" y="0px"
	 width="1200px" height="1200px" viewBox="0 0 1200 1200" enable-background="new 0 0 1200 1200" xml:space="preserve">
<g>
	<path fill="#ffa90f" d="M198.829,438.241c0,0-119.717-53.62-28.375-151.294c0,0,148.186-135.593,242.703-173.471
		c0,0,66.343-31.439,113.612,47.27c0,0,122.875,217.615,138.639,416.174c0,0,9.481,34.663-37.878,75.583
		c0,0-66.164,37.878-110.308,31.528C517.222,684.03,268.196,494.947,198.829,438.241z"/>
	<path fill="#ffa90f" d="M589.848,148.397c0,0,119.526,157.382,125.484,413.088c0,0,118.154-40.88,158.923-10.567
		c0,0,99.825-402.521-101.348-408.568L589.848,148.397z"/>
	<path fill="#ffa90f" d="M943.968,243.676c0,0,45.377,95.328-3.024,282.933c0,0,72.559-7.61,124.046,18.178
		c0,0,108.892,49.964,80.192-122.594C1145.182,422.192,1099.738,287.601,943.968,243.676z"/>
	<path fill="#ffa90f" d="M125.62,445.46c0,0,126.201,92.669,344.248,260.707c0,0-79.212,96.543-64.904,145.421
		c0,0-412.153-45.533-348.229-236.442L125.62,445.46z"/>
	<path fill="#ffa90f" d="M92.699,810.668c0,0,73.69,75.578,266.47,94.976c0,0-32.2,65.576-25.873,122.719
		c0,0,9.218,119.464-142.66,32.877C190.636,1061.24,79.874,972.093,92.699,810.668z"/>
</g>
</svg>
